<svg xmlns="http://www.w3.org/2000/svg" width="187.5" viewBox="0 0 187.5 187.5" height="187.5" version="1.0"><defs><clipPath id="a"><path d="M 31.957031 27 L 55 27 L 55 87 L 31.957031 87 Z M 31.957031 27"/></clipPath><clipPath id="b"><path d="M 59 9.082031 L 107 9.082031 L 107 26 L 59 26 Z M 59 9.082031"/></clipPath><clipPath id="c"><path d="M 115 14 L 155.707031 14 L 155.707031 83 L 115 83 Z M 115 14"/></clipPath><clipPath id="d"><path d="M 147 89 L 155.707031 89 L 155.707031 117 L 147 117 Z M 147 89"/></clipPath></defs><path fill="#0ED5FF" d="M 93.832031 59.210938 C 92.898438 59.207031 91.972656 59.292969 91.058594 59.46875 C 90.140625 59.644531 89.246094 59.902344 88.378906 60.246094 C 87.511719 60.589844 86.683594 61.011719 85.898438 61.511719 C 85.109375 62.011719 84.375 62.582031 83.695312 63.222656 C 83.019531 63.863281 82.40625 64.558594 81.859375 65.316406 C 81.3125 66.070312 80.84375 66.871094 80.449219 67.71875 C 80.058594 68.5625 79.746094 69.4375 79.519531 70.339844 C 79.292969 71.246094 79.152344 72.164062 79.101562 73.09375 C 79.101562 73.3125 79.101562 73.535156 79.101562 73.753906 C 79.09375 73.808594 79.09375 73.863281 79.101562 73.917969 C 79.101562 74.476562 79.101562 75.035156 79.101562 75.609375 C 79.101562 78.226562 79.011719 80.816406 78.835938 83.359375 C 78.601562 86.65625 78.21875 89.949219 77.6875 93.15625 C 77.171875 96.300781 76.5 99.414062 75.667969 102.496094 C 74.859375 105.511719 73.902344 108.523438 72.796875 111.453125 C 71.691406 114.378906 70.484375 117.21875 69.113281 120.027344 L 74.402344 122.601562 C 75.875 119.660156 77.171875 116.570312 78.320312 113.511719 C 79.46875 110.453125 80.5 107.214844 81.371094 104.023438 C 82.238281 100.832031 82.976562 97.449219 83.519531 94.109375 C 84.066406 90.773438 84.492188 87.242188 84.730469 83.816406 C 84.921875 81.140625 85.007812 78.402344 85.007812 75.636719 C 85.007812 75.035156 85.007812 74.433594 85.007812 73.8125 C 85.015625 73.234375 85.074219 72.660156 85.195312 72.09375 C 85.3125 71.527344 85.484375 70.976562 85.710938 70.445312 C 85.9375 69.910156 86.214844 69.402344 86.542969 68.925781 C 86.871094 68.445312 87.242188 68.003906 87.65625 67.597656 C 88.070312 67.191406 88.519531 66.832031 89.003906 66.511719 C 89.488281 66.195312 90 65.929688 90.539062 65.710938 C 91.078125 65.496094 91.632812 65.332031 92.203125 65.222656 C 92.773438 65.117188 93.347656 65.066406 93.929688 65.070312 C 94.507812 65.074219 95.082031 65.136719 95.652344 65.257812 C 96.21875 65.375 96.769531 65.546875 97.304688 65.773438 C 97.839844 66 98.347656 66.277344 98.824219 66.601562 C 99.304688 66.929688 99.75 67.300781 100.15625 67.710938 C 100.5625 68.125 100.925781 68.574219 101.242188 69.058594 C 101.558594 69.542969 101.828125 70.054688 102.046875 70.59375 C 102.261719 71.128906 102.425781 71.683594 102.53125 72.253906 C 102.640625 72.824219 102.691406 73.398438 102.6875 73.976562 L 102.6875 76.035156 C 102.6875 76.960938 102.6875 77.886719 102.6875 78.800781 C 102.6875 81.605469 102.613281 84.355469 102.464844 87.050781 L 108.359375 87.390625 C 108.566406 84.535156 108.566406 81.652344 108.566406 78.816406 C 108.566406 77.710938 108.566406 76.578125 108.566406 75.460938 L 108.566406 73.992188 C 108.570312 73.023438 108.480469 72.0625 108.292969 71.109375 C 108.109375 70.160156 107.832031 69.238281 107.464844 68.339844 C 107.097656 67.445312 106.644531 66.589844 106.109375 65.785156 C 105.570312 64.976562 104.960938 64.230469 104.277344 63.542969 C 103.59375 62.855469 102.847656 62.242188 102.039062 61.703125 C 101.234375 61.164062 100.382812 60.707031 99.488281 60.335938 C 98.589844 59.964844 97.667969 59.683594 96.714844 59.492188 C 95.765625 59.304688 94.804688 59.210938 93.832031 59.210938 Z M 93.832031 59.210938"/><path fill="#0ED5FF" d="M 110.214844 133.574219 C 111.726562 130.207031 113.0625 126.777344 114.222656 123.277344 C 115.371094 119.804688 116.359375 116.1875 117.167969 112.511719 C 117.980469 108.832031 118.640625 105.15625 119.144531 101.304688 C 119.644531 97.449219 119.984375 93.65625 120.175781 89.699219 C 120.367188 85.742188 120.425781 81.800781 120.335938 77.769531 L 120.335938 73.359375 C 120.335938 69.785156 119.636719 66.355469 118.246094 63.0625 C 117.582031 61.480469 116.769531 59.980469 115.796875 58.5625 C 114.367188 56.425781 112.660156 54.539062 110.675781 52.898438 C 108.691406 51.257812 106.515625 49.933594 104.144531 48.929688 C 102.511719 48.242188 100.828125 47.726562 99.09375 47.375 C 97.355469 47.027344 95.605469 46.851562 93.832031 46.851562 C 92.0625 46.851562 90.308594 47.027344 88.574219 47.375 C 86.835938 47.726562 85.152344 48.242188 83.519531 48.929688 L 85.820312 54.339844 C 87.070312 53.820312 88.363281 53.421875 89.691406 53.148438 C 92.464844 52.585938 95.234375 52.585938 98.003906 53.148438 C 99.332031 53.421875 100.625 53.820312 101.875 54.339844 C 103.101562 54.871094 104.269531 55.5 105.382812 56.238281 C 107.589844 57.746094 109.449219 59.605469 110.953125 61.8125 C 111.703125 62.917969 112.335938 64.082031 112.851562 65.3125 C 113.382812 66.558594 113.785156 67.84375 114.058594 69.167969 C 114.328125 70.542969 114.460938 71.929688 114.457031 73.328125 L 114.457031 77.742188 C 114.546875 81.699219 114.457031 85.59375 114.3125 89.316406 C 114.164062 93.039062 113.78125 96.863281 113.308594 100.464844 C 112.835938 104.070312 112.203125 107.761719 111.511719 111.171875 C 110.820312 114.585938 109.699219 118.113281 108.566406 121.46875 C 107.472656 124.785156 106.210938 128.035156 104.777344 131.21875 C 103.34375 134.398438 101.746094 137.492188 99.976562 140.5 C 98.175781 143.550781 96.210938 146.492188 94.082031 149.324219 C 91.890625 152.234375 89.550781 155.019531 87.054688 157.679688 L 91.359375 161.695312 C 93.996094 158.886719 96.476562 155.945312 98.796875 152.867188 C 101.046875 149.863281 103.128906 146.742188 105.042969 143.515625 C 106.945312 140.292969 108.667969 136.976562 110.214844 133.574219 Z M 110.214844 133.574219"/><path fill="#0ED5FF" d="M 97.691406 131.203125 C 99.28125 127.847656 100.6875 124.417969 101.90625 120.910156 C 103.113281 117.4375 104.175781 113.804688 105.058594 110.144531 C 105.941406 106.480469 106.648438 102.789062 107.210938 98.949219 L 101.316406 98.113281 C 100.785156 101.746094 100.109375 105.332031 99.269531 108.773438 C 98.457031 112.226562 97.476562 115.628906 96.324219 118.980469 C 95.167969 122.289062 93.847656 125.53125 92.359375 128.703125 C 90.863281 131.882812 89.203125 134.976562 87.378906 137.984375 C 85.523438 141.03125 83.515625 143.972656 81.355469 146.808594 C 79.128906 149.714844 76.761719 152.5 74.253906 155.164062 L 78.542969 159.195312 C 81.195312 156.382812 83.695312 153.441406 86.039062 150.367188 C 88.304688 147.367188 90.414062 144.261719 92.359375 141.042969 C 94.304688 137.855469 96.085938 134.574219 97.691406 131.203125 Z M 97.691406 131.203125"/><path fill="#0ED5FF" d="M 89.546875 94.992188 C 89.015625 98.496094 88.324219 101.964844 87.484375 105.289062 L 93.214844 106.761719 C 94.082031 103.230469 94.804688 99.582031 95.363281 95.90625 C 95.925781 92.230469 96.324219 88.449219 96.558594 84.640625 C 96.78125 81.757812 96.78125 78.933594 96.78125 76.050781 C 96.78125 75.019531 96.78125 73.992188 96.78125 72.960938 L 90.886719 73.09375 C 90.886719 74.09375 90.886719 75.09375 90.886719 76.035156 C 90.886719 78.800781 90.8125 81.519531 90.636719 84.199219 C 90.445312 87.875 90.0625 91.492188 89.546875 94.992188 Z M 89.546875 94.992188"/><path fill="#0ED5FF" d="M 80.855469 136.777344 C 82.714844 133.671875 84.414062 130.480469 85.953125 127.203125 C 87.425781 123.953125 88.898438 120.570312 90.078125 117.171875 L 84.523438 115.21875 C 83.375 118.4375 82.046875 121.628906 80.574219 124.703125 C 79.101562 127.777344 77.628906 130.820312 75.800781 133.761719 C 73.972656 136.707031 72.101562 139.648438 70.027344 142.398438 C 67.949219 145.148438 65.695312 147.957031 63.324219 150.605469 L 67.742188 154.53125 C 70.246094 151.75 72.632812 148.839844 74.8125 145.898438 C 76.996094 142.957031 78.996094 139.882812 80.855469 136.777344 Z M 80.855469 136.777344"/><path fill="#0ED5FF" d="M 69.6875 131.292969 L 64.648438 128.25 C 63.042969 130.910156 61.261719 133.574219 59.375 136.160156 C 57.488281 138.75 55.46875 141.292969 53.335938 143.792969 L 57.753906 147.617188 C 59.992188 144.984375 62.171875 142.308594 64.074219 139.632812 C 65.972656 136.957031 67.992188 134.085938 69.6875 131.292969 Z M 69.6875 131.292969"/><path fill="#0ED5FF" d="M 73.207031 73.269531 C 73.210938 71.890625 73.347656 70.519531 73.621094 69.167969 C 73.894531 67.84375 74.300781 66.558594 74.828125 65.3125 C 75.347656 64.082031 75.980469 62.917969 76.730469 61.8125 C 77.472656 60.71875 78.3125 59.703125 79.25 58.769531 L 75.078125 54.605469 C 73.878906 55.808594 72.796875 57.113281 71.839844 58.519531 C 70.878906 59.9375 70.070312 61.4375 69.40625 63.019531 C 68.035156 66.238281 67.339844 69.597656 67.316406 73.09375 L 67.316406 73.328125 C 67.316406 73.976562 67.316406 74.636719 67.316406 75.285156 C 67.316406 97.199219 60.15625 116.261719 44.90625 135.117188 L 49.488281 138.808594 C 65.664062 118.863281 73.207031 98.613281 73.207031 75.300781 C 73.207031 74.625 73.207031 73.945312 73.207031 73.269531 Z M 73.207031 73.269531"/><path fill="#0ED5FF" d="M 50.800781 115.980469 C 51.964844 113.878906 53.054688 111.746094 54.027344 109.613281 C 55 107.480469 55.925781 105.199219 56.722656 102.964844 C 57.519531 100.730469 58.195312 98.347656 58.859375 96.007812 C 59.523438 93.671875 59.980469 91.15625 60.332031 88.65625 C 60.6875 86.15625 61.023438 83.582031 61.203125 80.992188 C 61.378906 78.402344 61.421875 75.683594 61.421875 72.933594 L 61.421875 72.785156 C 61.421875 70.585938 61.640625 68.410156 62.085938 66.253906 C 62.515625 64.167969 63.144531 62.144531 63.972656 60.179688 C 64.769531 58.253906 65.753906 56.425781 66.917969 54.695312 C 68.089844 52.957031 69.417969 51.347656 70.902344 49.867188 C 72.386719 48.386719 74.003906 47.0625 75.746094 45.894531 C 77.488281 44.726562 79.328125 43.738281 81.261719 42.925781 C 83.195312 42.117188 85.191406 41.5 87.246094 41.074219 C 91.609375 40.199219 95.96875 40.199219 100.328125 41.074219 C 102.414062 41.503906 104.4375 42.128906 106.398438 42.957031 C 109.296875 44.183594 111.960938 45.800781 114.390625 47.804688 C 116.816406 49.804688 118.90625 52.113281 120.660156 54.722656 C 121.824219 56.453125 122.808594 58.285156 123.605469 60.210938 C 124.433594 62.171875 125.0625 64.199219 125.492188 66.285156 C 125.960938 68.410156 126.210938 70.5625 126.242188 72.742188 L 126.242188 80.09375 L 132.136719 80.09375 L 132.136719 72.742188 C 132.136719 71.179688 132.042969 69.628906 131.851562 68.078125 C 131.660156 66.53125 131.378906 65 131 63.488281 C 130.621094 61.972656 130.152344 60.488281 129.59375 59.035156 C 129.035156 57.578125 128.386719 56.160156 127.65625 54.785156 C 126.921875 53.40625 126.109375 52.078125 125.210938 50.800781 C 124.316406 49.523438 123.34375 48.304688 122.300781 47.148438 C 121.253906 45.988281 120.144531 44.898438 118.964844 43.875 C 117.785156 42.851562 116.546875 41.902344 115.253906 41.03125 C 113.199219 39.640625 111.027344 38.464844 108.742188 37.5 C 106.421875 36.511719 104.023438 35.769531 101.550781 35.265625 C 96.40625 34.226562 91.261719 34.226562 86.113281 35.265625 C 83.640625 35.769531 81.246094 36.511719 78.925781 37.5 C 76.636719 38.464844 74.46875 39.640625 72.414062 41.03125 C 68.304688 43.792969 64.867188 47.226562 62.101562 51.324219 C 59.957031 54.492188 58.324219 57.902344 57.203125 61.554688 C 56.085938 65.210938 55.527344 68.949219 55.53125 72.769531 L 55.53125 73.09375 C 55.53125 75.636719 55.53125 78.167969 55.367188 80.640625 C 55.207031 83.109375 54.925781 85.449219 54.558594 87.773438 C 54.1875 90.097656 53.71875 92.332031 53.082031 94.539062 C 52.449219 96.742188 51.859375 98.949219 51.109375 100.996094 C 50.359375 103.039062 49.535156 105.140625 48.605469 107.171875 C 47.675781 109.203125 46.691406 111.171875 45.644531 113.113281 C 44.597656 115.054688 43.40625 116.96875 42.167969 118.878906 C 40.929688 120.792969 39.632812 122.601562 38.25 124.46875 L 42.964844 127.984375 C 44.4375 126.027344 45.820312 124.042969 47.101562 122.101562 C 48.382812 120.160156 49.636719 118.011719 50.800781 115.980469 Z M 50.800781 115.980469"/><path fill="#0ED5FF" d="M 125.375 101.847656 C 124.992188 105.363281 124.476562 108.804688 123.902344 112.144531 C 123.328125 115.480469 122.429688 118.789062 121.558594 121.9375 L 127.214844 123.570312 C 128.171875 120.246094 129.011719 116.777344 129.691406 113.277344 C 130.367188 109.773438 130.882812 106.246094 131.296875 102.582031 C 131.710938 98.921875 131.960938 95.316406 132.105469 91.523438 L 126.214844 91.300781 C 126.007812 94.863281 125.757812 98.433594 125.375 101.847656 Z M 125.375 101.847656"/><path fill="#0ED5FF" d="M 118.289062 131.25 C 115.84375 137.402344 112.765625 143.222656 109.050781 148.707031 C 107.136719 151.503906 105.082031 154.191406 102.878906 156.765625 L 107.296875 160.574219 C 109.636719 157.820312 111.824219 154.945312 113.855469 151.957031 C 115.835938 149.035156 117.652344 146.015625 119.304688 142.898438 C 120.941406 139.800781 122.414062 136.628906 123.722656 133.382812 Z M 118.289062 131.25"/><path fill="#0ED5FF" d="M 143.921875 72.152344 C 143.929688 67.171875 143.203125 62.300781 141.746094 57.539062 C 140.285156 52.773438 138.160156 48.332031 135.363281 44.207031 L 130.488281 47.503906 C 132.082031 49.871094 133.4375 52.371094 134.550781 55.003906 C 135.691406 57.675781 136.550781 60.4375 137.128906 63.285156 C 137.722656 66.195312 138.023438 69.136719 138.03125 72.109375 L 138.03125 82.402344 C 138.03125 85.609375 138.03125 88.757812 138.03125 91.742188 C 138.03125 94.730469 137.808594 97.933594 137.585938 100.875 C 137.367188 103.820312 137.058594 106.761719 136.675781 109.703125 C 136.292969 112.644531 135.789062 115.4375 135.199219 118.160156 C 134.613281 120.878906 133.933594 123.675781 133.183594 126.308594 C 132.429688 128.9375 131.519531 131.617188 130.546875 134.132812 C 129.574219 136.644531 128.453125 139.234375 127.261719 141.660156 C 126.066406 144.089844 124.769531 146.472656 123.296875 148.839844 L 128.320312 151.929688 C 129.792969 149.457031 131.265625 146.855469 132.59375 144.222656 C 133.917969 141.589844 135.082031 138.941406 136.085938 136.175781 C 137.085938 133.410156 138.03125 130.734375 138.871094 127.894531 C 139.707031 125.054688 140.34375 122.234375 140.992188 119.304688 C 141.640625 116.378906 142.09375 113.421875 142.464844 110.480469 C 142.832031 107.539062 143.1875 104.496094 143.421875 101.375 C 143.65625 98.257812 143.921875 95.183594 143.921875 92.050781 C 143.921875 88.917969 143.921875 85.742188 143.921875 82.507812 Z M 143.921875 72.152344"/><path fill="#0ED5FF" d="M 47.675781 52.679688 C 46.382812 55.714844 45.402344 58.847656 44.730469 62.078125 C 44.054688 65.4375 43.726562 68.828125 43.742188 72.253906 L 43.742188 73.035156 L 49.636719 72.8125 L 49.636719 72.152344 C 49.644531 69.179688 49.945312 66.238281 50.535156 63.328125 C 51.113281 60.480469 51.972656 57.71875 53.113281 55.046875 C 54.226562 52.417969 55.582031 49.917969 57.179688 47.546875 C 58.777344 45.199219 60.578125 43.023438 62.585938 41.015625 C 64.59375 39.011719 66.773438 37.214844 69.128906 35.632812 C 71.492188 34.027344 73.992188 32.671875 76.625 31.558594 C 79.347656 30.410156 82.15625 29.542969 85.054688 28.957031 C 87.953125 28.371094 90.878906 28.078125 93.832031 28.078125 C 96.789062 28.078125 99.714844 28.371094 102.613281 28.957031 C 105.507812 29.542969 108.316406 30.410156 111.039062 31.558594 C 113.671875 32.671875 116.171875 34.027344 118.539062 35.632812 C 120.894531 37.214844 123.074219 39.011719 125.078125 41.015625 L 129.191406 36.78125 C 126.929688 34.511719 124.472656 32.480469 121.824219 30.675781 C 119.136719 28.863281 116.296875 27.328125 113.308594 26.074219 C 110.273438 24.777344 107.140625 23.796875 103.910156 23.132812 C 97.183594 21.765625 90.453125 21.765625 83.726562 23.132812 C 80.496094 23.796875 77.359375 24.777344 74.328125 26.074219 C 71.347656 27.332031 68.519531 28.863281 65.84375 30.675781 C 63.195312 32.480469 60.738281 34.511719 58.476562 36.78125 C 56.199219 39.035156 54.164062 41.488281 52.363281 44.132812 C 50.523438 46.832031 48.960938 49.679688 47.675781 52.679688 Z M 47.675781 52.679688"/><path fill="#0ED5FF" d="M 41.078125 109.511719 C 41.886719 108.039062 42.640625 106.4375 43.332031 104.90625 C 44.023438 103.378906 44.6875 101.714844 45.277344 100.125 C 45.863281 98.539062 46.425781 96.804688 46.894531 95.140625 C 47.367188 93.480469 47.808594 91.683594 48.164062 89.949219 C 48.515625 88.214844 48.828125 86.34375 49.046875 84.523438 L 43.15625 83.785156 C 42.933594 85.464844 42.667969 87.140625 42.328125 88.773438 C 41.992188 90.40625 41.609375 91.964844 41.164062 93.539062 C 40.722656 95.113281 40.238281 96.597656 39.691406 98.097656 C 39.148438 99.597656 38.558594 101.039062 37.910156 102.507812 C 37.261719 103.980469 36.613281 105.289062 35.875 106.761719 C 35.140625 108.230469 34.402344 109.511719 33.519531 110.894531 L 38.542969 113.953125 C 39.441406 112.480469 40.296875 110.980469 41.078125 109.511719 Z M 41.078125 109.511719"/><g clip-path="url(#a)"><path fill="#0ED5FF" d="M 37.851562 71.5625 C 37.851562 67.769531 38.226562 64.015625 38.984375 60.296875 C 40.472656 53.078125 43.28125 46.417969 47.410156 40.308594 C 49.429688 37.335938 51.710938 34.574219 54.246094 32.03125 L 50.078125 27.882812 C 47.273438 30.691406 44.753906 33.734375 42.519531 37.015625 C 40.804688 39.550781 39.285156 42.199219 37.964844 44.960938 C 36.644531 47.726562 35.535156 50.570312 34.640625 53.496094 C 33.746094 56.425781 33.074219 59.402344 32.621094 62.429688 C 32.171875 65.457031 31.953125 68.503906 31.957031 71.5625 L 31.957031 86.273438 L 37.851562 86.273438 Z M 37.851562 71.5625"/></g><g clip-path="url(#b)"><path fill="#0ED5FF" d="M 72.042969 20.058594 C 75.4375 18.625 78.9375 17.542969 82.546875 16.808594 C 90.070312 15.277344 97.59375 15.277344 105.117188 16.808594 L 106.296875 11.042969 C 97.988281 9.363281 89.679688 9.363281 81.371094 11.042969 C 73.386719 12.679688 66.019531 15.777344 59.269531 20.335938 L 62.570312 25.203125 C 65.5625 23.183594 68.71875 21.46875 72.042969 20.058594 Z M 72.042969 20.058594"/></g><g clip-path="url(#c)"><path fill="#0ED5FF" d="M 154.457031 59.105469 C 152.808594 51.140625 149.703125 43.785156 145.144531 37.042969 C 142.914062 33.765625 140.394531 30.71875 137.585938 27.910156 C 134.777344 25.101562 131.722656 22.585938 128.425781 20.367188 C 125.109375 18.125 121.609375 16.226562 117.921875 14.675781 L 115.621094 20.085938 C 122.332031 22.925781 128.265625 26.914062 133.417969 32.058594 C 135.957031 34.605469 138.234375 37.367188 140.253906 40.339844 C 144.382812 46.441406 147.191406 53.101562 148.679688 60.3125 C 149.4375 64.035156 149.816406 67.796875 149.816406 71.59375 L 149.816406 82.625 L 155.707031 82.625 L 155.707031 71.59375 C 155.707031 67.390625 155.289062 63.226562 154.457031 59.105469 Z M 154.457031 59.105469"/></g><g clip-path="url(#d)"><path fill="#0ED5FF" d="M 149.816406 100.980469 C 149.8125 103.40625 149.65625 105.824219 149.34375 108.230469 C 149.042969 110.589844 148.585938 112.917969 147.972656 115.21875 L 153.675781 116.6875 C 155.035156 111.539062 155.710938 106.304688 155.707031 100.980469 L 155.707031 89.949219 L 149.816406 89.949219 Z M 149.816406 100.980469"/></g></svg>